<svg version="1.1" id="Layer_1" xmlns="http://www.w3.org/2000/svg" xmlns:xlink="http://www.w3.org/1999/xlink" x="0px" y="0px"
	 width="100%" viewBox="0 0 150 165" enable-background="new 0 0 150 165" xml:space="preserve">
<path fill="#FFFEFE" opacity="1.000000" stroke="none" 
	d="
M86.000000,166.000000 
	C58.333332,166.000000 31.166517,165.960968 4.000250,166.065140 
	C1.499571,166.074722 0.932529,165.499496 0.936484,162.999893 
	C1.020341,110.000031 1.020341,56.999969 0.936484,4.000101 
	C0.932529,1.500515 1.500424,0.931807 4.000114,0.936292 
	C51.999958,1.022425 100.000038,1.022425 147.999893,0.936292 
	C150.499588,0.931806 151.067474,1.500515 151.063522,4.000101 
	C150.979675,56.999969 150.979660,110.000031 151.063522,162.999893 
	C151.067474,165.499496 150.501205,166.080307 147.999619,166.066040 
	C127.500290,165.948929 107.000000,166.000000 86.000000,166.000000 
z"/>
<path fill="#F01745" opacity="1.000000" stroke="none" 
	d="
M50.001545,159.002151 
	C41.424141,158.694077 33.202980,160.077530 25.517065,155.988098 
	C15.643564,150.734711 9.340456,142.870667 8.863991,131.656769 
	C7.951997,110.192528 8.156486,88.695206 8.791776,67.220169 
	C9.017728,59.582199 12.415328,52.981312 18.246964,48.043201 
	C31.334251,36.961140 44.415398,25.853226 57.891361,15.254666 
	C68.668060,6.779020 82.783463,6.590457 93.574821,14.970168 
	C107.375290,25.686510 120.739754,36.979210 134.037369,48.322189 
	C141.068466,54.319782 143.479919,62.642776 143.515564,71.642189 
	C143.590134,90.465302 143.840393,109.295166 143.452454,128.110580 
	C143.065201,146.892181 130.280594,158.947998 111.469200,158.991455 
	C91.146599,159.038391 70.823807,159.002121 50.001545,159.002151 
z"/>
<path fill="#FFFEFE" opacity="1.000000" stroke="none" 
	d="
M89.995567,69.003532 
	C94.658882,69.004829 98.826813,68.898499 102.986977,69.032692 
	C109.205673,69.233284 113.192818,72.749794 113.301559,78.917702 
	C113.539352,92.404488 113.528267,105.901703 113.276001,119.388252 
	C113.167786,125.173683 109.094292,128.897278 103.177422,128.939224 
	C85.021416,129.067993 66.863174,129.075180 48.707355,128.932526 
	C42.579258,128.884369 38.748001,125.054718 38.655323,118.818275 
	C38.457336,105.495323 38.448875,92.165436 38.644962,78.842552 
	C38.736069,72.652756 42.873280,69.077049 49.518147,69.032051 
	C62.843784,68.941788 76.170456,69.004158 89.995567,69.003532 
z"/>
<path fill="#F11E4A" opacity="1.000000" stroke="none" 
	d="
M81.044365,102.339935 
	C71.802917,104.661041 64.822540,99.986115 57.765762,96.004456 
	C54.889172,94.381386 54.689598,91.329979 56.247200,88.531769 
	C57.781448,85.775528 60.684250,84.841957 63.115032,86.418121 
	C71.700928,91.985390 79.957657,92.308220 88.603012,86.551735 
	C91.266373,84.778343 94.253654,85.729477 95.809509,88.730431 
	C97.415993,91.829025 96.676857,94.724258 93.563324,96.421074 
	C89.634949,98.561981 85.786751,100.926514 81.044365,102.339935 
z"/>
</svg>